<svg width="14" height="15" viewBox="0 0 14 15" fill="none" xmlns="http://www.w3.org/2000/svg">
<path d="M8.94469 14.7263C3.73185 14.6879 4.17392 14.6948 4.01054 14.6455C3.76205 14.5702 3.57808 14.4497 3.41608 14.2567C3.08934 13.8692 3.03854 13.3229 3.28703 12.8725C3.34332 12.7684 3.66046 12.4508 7.6432 8.47352C10.0059 6.1159 11.9801 4.1567 12.0309 4.1211C12.2355 3.97187 12.4579 3.90204 12.7256 3.90204C12.937 3.90204 13.0812 3.93627 13.2734 4.03074C13.585 4.18545 13.8033 4.44284 13.9022 4.77965C13.9365 4.89465 13.9434 4.94805 13.9489 5.16847C13.9571 5.44914 13.9983 11.9319 13.9997 13.0149C14.001 13.6652 13.9997 13.709 13.9695 13.8226C13.8335 14.3456 13.386 14.7112 12.8382 14.7495C12.775 14.7523 11.0232 14.7427 8.94469 14.7263Z" fill="#252B32"/>
<path d="M1.13572 11.5883C0.727974 11.5321 0.369651 11.2884 0.18843 10.9434C0.0964467 10.7668 0.0580059 10.6093 0.0511412 10.3547C0.0442768 10.1096 0.00171748 3.61042 0.000344578 2.48501C-0.00102829 1.82647 0.00034458 1.78266 0.0305482 1.67039C0.145871 1.2309 0.4836 0.892731 0.922923 0.780464C1.0355 0.750344 1.08218 0.748975 1.73979 0.750344C2.83261 0.751713 9.36479 0.792786 9.6229 0.801001C9.81785 0.806477 9.87688 0.814692 9.98946 0.847551C10.3258 0.947496 10.5867 1.16519 10.7404 1.47461C10.8365 1.66765 10.8695 1.81141 10.8695 2.02225C10.8695 2.2728 10.805 2.49049 10.6718 2.69038C10.6073 2.78759 2.08438 11.287 1.96906 11.3706C1.73567 11.5403 1.4103 11.6252 1.13572 11.5883Z" fill="#252B32"/>
</svg>
